<svg width="460" height="460" viewBox="0 0 460 460" fill="none" xmlns="http://www.w3.org/2000/svg">
<circle cx="230" cy="230" r="229" transform="rotate(90 230 230)" fill="#72DA41"/>
<circle cx="230" cy="230" r="229" transform="rotate(90 230 230)" fill="url(#paint0_radial_412_30)"/>
<circle opacity="0.1" cx="230" cy="230" r="222" stroke="black" stroke-width="16"/>
<g filter="url(#filter0_i_412_30)">
<circle cx="230" cy="230" r="222" stroke="#E2E2E2" stroke-width="14"/>
<circle cx="230" cy="230" r="222" stroke="url(#paint1_linear_412_30)" stroke-width="14"/>
</g>
<g filter="url(#filter1_d_412_30)">
<path d="M330 213.179C343.333 220.877 343.333 240.122 330 247.821L185.25 331.392C171.917 339.09 155.25 329.467 155.25 314.071L155.25 146.929C155.25 131.533 171.917 121.91 185.25 129.608L330 213.179Z" fill="#F4FFF0"/>
<path d="M330 213.179C343.333 220.877 343.333 240.122 330 247.821L185.25 331.392C171.917 339.09 155.25 329.467 155.25 314.071L155.25 146.929C155.25 131.533 171.917 121.91 185.25 129.608L330 213.179Z" fill="url(#paint2_radial_412_30)" fill-opacity="0.5"/>
</g>
<defs>
<filter id="filter0_i_412_30" x="1" y="1" width="458" height="458" filterUnits="userSpaceOnUse" color-interpolation-filters="sRGB">
<feFlood flood-opacity="0" result="BackgroundImageFix"/>
<feBlend mode="normal" in="SourceGraphic" in2="BackgroundImageFix" result="shape"/>
<feColorMatrix in="SourceAlpha" type="matrix" values="0 0 0 0 0 0 0 0 0 0 0 0 0 0 0 0 0 0 127 0" result="hardAlpha"/>
<feOffset dy="2"/>
<feComposite in2="hardAlpha" operator="arithmetic" k2="-1" k3="1"/>
<feColorMatrix type="matrix" values="0 0 0 0 1 0 0 0 0 1 0 0 0 0 1 0 0 0 0.5 0"/>
<feBlend mode="normal" in2="shape" result="effect1_innerShadow_412_30"/>
</filter>
<filter id="filter1_d_412_30" x="146.25" y="120.899" width="204.75" height="227.203" filterUnits="userSpaceOnUse" color-interpolation-filters="sRGB">
<feFlood flood-opacity="0" result="BackgroundImageFix"/>
<feColorMatrix in="SourceAlpha" type="matrix" values="0 0 0 0 0 0 0 0 0 0 0 0 0 0 0 0 0 0 127 0" result="hardAlpha"/>
<feOffset dx="1" dy="4"/>
<feGaussianBlur stdDeviation="5"/>
<feComposite in2="hardAlpha" operator="out"/>
<feColorMatrix type="matrix" values="0 0 0 0 0 0 0 0 0 0 0 0 0 0 0 0 0 0 0.15 0"/>
<feBlend mode="normal" in2="BackgroundImageFix" result="effect1_dropShadow_412_30"/>
<feBlend mode="normal" in="SourceGraphic" in2="effect1_dropShadow_412_30" result="shape"/>
</filter>
<radialGradient id="paint0_radial_412_30" cx="0" cy="0" r="1" gradientUnits="userSpaceOnUse" gradientTransform="translate(230 230) rotate(90) scale(229)">
<stop stop-color="#B1F292"/>
<stop offset="0.265625" stop-color="#B1F292" stop-opacity="0.67"/>
<stop offset="1" stop-color="#72DA41"/>
</radialGradient>
<linearGradient id="paint1_linear_412_30" x1="230" y1="1" x2="230" y2="459" gradientUnits="userSpaceOnUse">
<stop stop-color="white" stop-opacity="0.9"/>
<stop offset="1" stop-color="white" stop-opacity="0"/>
</linearGradient>
<radialGradient id="paint2_radial_412_30" cx="0" cy="0" r="1" gradientUnits="userSpaceOnUse" gradientTransform="translate(223.5 230.5) rotate(180) scale(108.245)">
<stop stop-color="white"/>
<stop offset="1" stop-color="white" stop-opacity="0"/>
</radialGradient>
</defs>
</svg>
